<svg xmlns="http://www.w3.org/2000/svg" width="1386.325" height="1268.893" viewBox="0 0 1386.325 1268.893">
  <path id="Path_212" data-name="Path 212" d="M817.747-535.569H1210.62c90.316,0,130.958,45.743,164.826,220.762h40.642L1379.962-637h-42.9c-4.516,23.866-38.384,29.833-69.994,29.833H181.021c-15.805,0-31.61-1.989-45.158-5.967S113.284-625.067,111.026-637h-42.9L32-314.808H72.642c33.868-175.018,74.51-220.762,164.826-220.762H630.342V446.919c0,107.4-40.642,145.185-178.374,145.185H368.426v37.788h711.236V592.1H996.12c-137.732,0-178.374-37.788-178.374-145.185Z" transform="translate(-30.882 638)" fill="none" stroke="#fff" stroke-width="2"/>
</svg>
