<svg xmlns="http://www.w3.org/2000/svg" width="1920" height="340.971" viewBox="0 0 1920 340.971">
  <path id="Subtraction_1" data-name="Subtraction 1" d="M2117,461.97h0c-51.793-40.437-112.847-77.608-181.465-110.481-68.82-32.97-145.047-61.518-226.563-84.852-41.075-11.758-83.92-22.294-127.345-31.316-43.958-9.133-89.447-16.909-135.2-23.111-46.456-6.3-94.2-11.111-141.92-14.306-48.571-3.252-98.2-4.9-147.5-4.9s-98.929,1.649-147.5,4.9c-47.717,3.2-95.466,8.009-141.921,14.306-45.757,6.2-91.246,13.978-135.2,23.111-43.426,9.023-86.271,19.559-127.345,31.316-81.517,23.334-157.744,51.882-226.564,84.852C309.851,384.36,248.8,421.531,197,461.968V121H2117V461.97Z" transform="translate(-197 -121)" fill="#1dff00"/>
</svg>
