<svg xmlns="http://www.w3.org/2000/svg" xmlns:xlink="http://www.w3.org/1999/xlink" width="1920" height="1429" viewBox="0 0 1920 1429">
  <defs>
    <clipPath id="clip-path">
      <path id="Path_244" data-name="Path 244" d="M0,0H1920V1429H0Z" transform="translate(-13786 14230)" stroke="#707070" stroke-width="1"/>
    </clipPath>
  </defs>
  <g id="Mask_Group_5" data-name="Mask Group 5" transform="translate(13786 -14230)" clip-path="url(#clip-path)">
    <g id="Path_245" data-name="Path 245" transform="translate(-11096 15772) rotate(180)">
      <path d="M 2742.32177734375 1541.499877929688 L 2742.3134765625 1541.499877929688 L 2741.8134765625 1541.499877929688 L 730.498046875 1541.499877929688 C 674.4464111328125 1541.499877929688 627.150390625 1529.445190429688 589.9230346679688 1505.670166015625 C 581.1563720703125 1500.071533203125 572.86572265625 1493.75048828125 565.2810668945312 1486.883178710938 C 557.8433837890625 1480.149169921875 550.9020385742188 1472.724609375 544.6500244140625 1464.815185546875 C 538.51171875 1457.049560546875 532.8890380859375 1448.629272460938 527.9380493164062 1439.78759765625 C 523.070068359375 1431.09423828125 518.7353515625 1421.786254882812 515.0546875 1412.122924804688 C 508.7157287597656 1395.480834960938 504.1337280273438 1377.336547851562 501.4357299804688 1358.193237304688 C 498.7910461425781 1339.430541992188 497.9230346679688 1319.480224609375 498.855712890625 1298.897216796875 C 499.7767028808594 1278.570190429688 502.4627075195312 1257.408203125 506.8390502929688 1235.999267578125 C 511.1980590820312 1214.676879882812 517.2767333984375 1192.897583007812 524.9063720703125 1171.2666015625 C 532.5726928710938 1149.532592773438 541.8814086914062 1127.730590820312 552.5744018554688 1106.466552734375 C 563.4100341796875 1084.919189453125 575.7860717773438 1063.688598632812 589.3587036132812 1043.364868164062 C 603.216064453125 1022.614562988281 618.4957275390625 1002.549194335938 634.7730712890625 983.7268676757812 C 651.4957275390625 964.389892578125 669.515380859375 946.0835571289062 688.3317260742188 929.31689453125 L 1497.321655273438 208.4485473632812 C 1513.674682617188 193.8768768310547 1531.42041015625 180.80322265625 1550.06640625 169.5908813476562 C 1568.298095703125 158.6275482177734 1587.64404296875 149.28955078125 1607.5673828125 141.8358764648438 C 1627.177734375 134.4995422363281 1647.591064453125 128.8965454101562 1668.24072265625 125.1828842163086 C 1688.721435546875 121.4992141723633 1709.668334960938 119.6318817138672 1730.5 119.6318817138672 C 1751.331665039062 119.6318817138672 1772.278686523438 121.4992141723633 1792.759399414062 125.1828842163086 C 1813.409057617188 128.8965454101562 1833.822387695312 134.4995422363281 1853.432739257812 141.8358764648438 C 1873.356079101562 149.28955078125 1892.702026367188 158.6275482177734 1910.933715820312 169.5908813476562 C 1929.579711914062 180.80322265625 1947.325439453125 193.8768768310547 1963.678344726562 208.4485473632812 L 2772.668701171875 929.31689453125 C 2791.70263671875 946.2772216796875 2809.982666015625 964.8012084960938 2827.001953125 984.3742065429688 C 2843.578125 1003.437866210938 2859.183349609375 1023.754577636719 2873.38427734375 1044.759521484375 C 2887.307373046875 1065.3525390625 2900.043701171875 1086.847534179688 2911.239990234375 1108.647216796875 C 2922.3037109375 1130.188842773438 2931.977294921875 1152.247924804688 2939.991943359375 1174.2119140625 C 2947.981689453125 1196.106567382812 2954.399169921875 1218.114868164062 2959.066162109375 1239.62548828125 C 2963.760009765625 1261.26220703125 2966.728759765625 1282.604858398438 2967.888671875 1303.060913085938 C 2969.065673828125 1323.811889648438 2968.393310546875 1343.87353515625 2965.89111328125 1362.688842773438 C 2963.33349609375 1381.917602539062 2958.830322265625 1400.084228515625 2952.5078125 1416.684204101562 C 2948.946044921875 1426.034545898438 2944.7470703125 1435.034912109375 2940.02734375 1443.4345703125 C 2935.226318359375 1451.979248046875 2929.768798828125 1460.112182617188 2923.8056640625 1467.60791015625 C 2917.73193359375 1475.242919921875 2910.982666015625 1482.4072265625 2903.7451171875 1488.901489257812 C 2896.36474609375 1495.523559570312 2888.2900390625 1501.616943359375 2879.7451171875 1507.01220703125 C 2843.50048828125 1529.896606445312 2797.262939453125 1541.499877929688 2742.317626953125 1541.499877929688 L 2742.32177734375 1541.499877929688 Z" stroke="none"/>
      <path d="M 1730.5 120.131591796875 C 1709.697998046875 120.131591796875 1688.78076171875 121.99658203125 1668.3291015625 125.674560546875 C 1647.709106445312 129.3831787109375 1627.32470703125 134.978271484375 1607.74267578125 142.3038330078125 C 1587.84765625 149.746826171875 1568.529418945312 159.071533203125 1550.324096679688 170.0191650390625 C 1531.704711914062 181.215576171875 1513.984008789062 194.2708740234375 1497.654418945312 208.8218994140625 L 688.664306640625 929.690185546875 C 669.864013671875 946.4425659179688 651.859619140625 964.7332153320312 635.1513671875 984.0538940429688 C 618.887451171875 1002.860900878906 603.620361328125 1022.909240722656 589.7744140625 1043.642578125 C 576.213134765625 1063.94921875 563.84765625 1085.161865234375 553.021484375 1106.691162109375 C 542.337646484375 1127.936279296875 533.037109375 1149.718505859375 525.3779296875 1171.432861328125 C 517.755615234375 1193.04248046875 511.683349609375 1214.799194335938 507.3291015625 1236.099243164062 C 502.957763671875 1257.48291015625 500.275146484375 1278.618896484375 499.35498046875 1298.919921875 C 498.424072265625 1319.47216796875 499.290283203125 1339.391235351562 501.9306640625 1358.123291015625 C 504.623779296875 1377.2294921875 509.1962890625 1395.337890625 515.52197265625 1411.94482421875 C 519.194091796875 1421.585571289062 523.518310546875 1430.871215820312 528.374267578125 1439.543579101562 C 533.3125 1448.36181640625 538.92041015625 1456.76025390625 545.04248046875 1464.505249023438 C 551.27734375 1472.392578125 558.199462890625 1479.797241210938 565.616455078125 1486.512573242188 C 573.180419921875 1493.361206054688 581.448974609375 1499.664916992188 590.1923828125 1505.248901367188 C 627.337646484375 1528.971557617188 674.54345703125 1540.999877929688 730.498046875 1540.999877929688 L 2742.317626953125 1540.999877929688 C 2797.1669921875 1540.999877929688 2843.314453125 1529.422607421875 2879.47802734375 1506.589233398438 C 2887.99951171875 1501.209228515625 2896.05126953125 1495.132934570312 2903.4111328125 1488.529174804688 C 2910.6279296875 1482.053588867188 2917.35791015625 1474.909912109375 2923.414306640625 1467.296508789062 C 2929.36083984375 1459.821899414062 2934.8037109375 1451.7109375 2939.59130859375 1443.18994140625 C 2944.299072265625 1434.811279296875 2948.48779296875 1425.83349609375 2952.04052734375 1416.506225585938 C 2958.349365234375 1399.942504882812 2962.8427734375 1381.813598632812 2965.39501953125 1362.622924804688 C 2967.893798828125 1343.8388671875 2968.564697265625 1323.808837890625 2967.389404296875 1303.089233398438 C 2966.230712890625 1282.6591796875 2963.26611328125 1261.342529296875 2958.577392578125 1239.731567382812 C 2953.9150390625 1218.2431640625 2947.50390625 1196.256591796875 2939.5224609375 1174.383178710938 C 2931.5146484375 1152.4384765625 2921.849365234375 1130.39892578125 2910.794921875 1108.875854492188 C 2899.60791015625 1087.093872070312 2886.8818359375 1065.6162109375 2872.970458984375 1045.03955078125 C 2858.7802734375 1024.05126953125 2843.1875 1003.750854492188 2826.624755859375 984.7025756835938 C 2809.619384765625 965.1455688476562 2791.35400390625 946.6365356445312 2772.3359375 929.690185546875 L 1963.345703125 208.8218994140625 C 1947.015991210938 194.2708740234375 1929.29541015625 181.215576171875 1910.676025390625 170.0191650390625 C 1892.470703125 159.071533203125 1873.152099609375 149.746826171875 1853.25732421875 142.3038330078125 C 1833.675048828125 134.978271484375 1813.291015625 129.3831787109375 1792.670654296875 125.674560546875 C 1772.219360351562 121.99658203125 1751.302001953125 120.131591796875 1730.5 120.131591796875 M 1730.5 119.1314697265625 C 1813.983520507812 119.1314697265625 1897.466918945312 148.7794189453125 1964.011108398438 208.0751953125 L 2773.00146484375 928.9435424804688 C 3013.794921875 1143.508056640625 3064.79296875 1541.999877929688 2742.31787109375 1541.999877929688 C 2742.298095703125 1541.999877929688 2742.337158203125 1541.999877929688 2742.3173828125 1541.999877929688 L 730.498046875 1541.999877929688 C 407.957763671875 1542.000244140625 447.1904296875 1143.521240234375 687.9990234375 928.9435424804688 L 1496.989013671875 208.0751953125 C 1563.533203125 148.7794189453125 1647.0166015625 119.1314697265625 1730.5 119.1314697265625 Z" stroke="none" fill="#707070"/>
    </g>
  </g>
</svg>
