<svg xmlns="http://www.w3.org/2000/svg" width="191.699" height="245.727" viewBox="0 0 191.699 245.727">
  <g id="letter-r" transform="translate(-224.661 -392.773)">
    <path id="Path_242" data-name="Path 242" d="M94.4-157.53a266.28,266.28,0,0,1,18.88-29.5c5.9-8.26,12.39-15.34,23.01-15.34,7.08,0,14.16,2.95,20.65,5.9a108.64,108.64,0,0,0,31.27,9.44l14.16-35.4c-14.16-4.13-24.78-6.49-30.68-8.85-11.21-4.72-12.98-5.31-20.06-5.31-19.47,0-26.55,11.21-56.05,59.59H94.4v-62.54H82.6l-67.26,23.6v10.03l39.53,14.16V-55.46c0,31.27-9.44,43.66-39.53,44.25V0H155.17V-11.21H132.75c-29.5,0-38.35-7.67-38.35-31.86Z" transform="translate(209.321 638)" fill="#fff"/>
    <path id="Path_241" data-name="Path 241" d="M94.4-157.53a266.28,266.28,0,0,1,18.88-29.5c5.9-8.26,12.39-15.34,23.01-15.34,7.08,0,14.16,2.95,20.65,5.9a108.64,108.64,0,0,0,31.27,9.44l14.16-35.4c-14.16-4.13-24.78-6.49-30.68-8.85-11.21-4.72-12.98-5.31-20.06-5.31-19.47,0-26.55,11.21-56.05,59.59H94.4v-62.54H82.6l-67.26,23.6v10.03l39.53,14.16V-55.46c0,31.27-9.44,43.66-39.53,44.25V0H155.17V-11.21H132.75c-29.5,0-38.35-7.67-38.35-31.86Z" transform="translate(213.321 638)" fill="none" stroke="#000" stroke-width="1"/>
    <path id="Path_213" data-name="Path 213" d="M179.644-175.913c-14.161-4.13-24.781-6.49-30.682-8.85-11.211-4.72-12.981-5.31-20.061-5.31-19.471,0-23.64,10.9-36.017,28.42" transform="translate(233.569 583.847)" fill="none" stroke="#000" stroke-width="2" stroke-dasharray="11"/>
  </g>
</svg>
