<svg xmlns="http://www.w3.org/2000/svg" width="241.541" height="276.54" viewBox="0 0 241.541 276.54">
  <g id="letter-e" transform="translate(-609.68 -370.38)">
    <path id="Path_243" data-name="Path 243" d="M267.96-167.64v-15.18c-21.78-21.78-19.8-85.8-108.9-85.8-80.52,0-127.38,71.28-127.38,141.24,0,76.56,50.16,135.3,114.84,135.3,48.18,0,89.76-33,117.48-67.98l-7.26-7.92c-25.08,29.7-50.82,42.9-83.82,42.9-52.14,0-100.32-46.2-100.32-114.84,0-8.58,1.32-17.82,2.64-27.72ZM77.22-184.8c15.18-61.38,48.18-71.28,69.96-71.28,31.68,0,58.08,28.38,65.34,71.28Z" transform="translate(578 639)" fill="#fff"/>
    <path id="Path_227" data-name="Path 227" d="M253.248-117.923v-14.639c-21-21-19.094-82.741-105.018-82.741-77.649,0-122.839,68.739-122.839,136.2,0,73.83,48.372,130.476,110.746,130.476,46.462,0,86.56-31.823,113.292-65.556l-7-7.638C218.242,6.825,193.42,19.554,161.6,19.554,111.315,19.554,64.853-25,64.853-91.192c0-8.274,1.273-17.185,2.546-26.732ZM69.308-134.471c14.639-59.192,46.462-68.739,67.466-68.739,30.551,0,56.009,27.368,63.011,68.739Z" transform="translate(590.423 589.799)" fill="none" stroke="#000" stroke-width="1"/>
    <path id="Path_232" data-name="Path 232" d="M2872.349,14104.667c8.352,10.664,19.62,37.363,22.365,42.418a31.8,31.8,0,0,0,6.873,8.441" transform="translate(-2051 -13701)" fill="none" stroke="#000" stroke-width="2" stroke-dasharray="11"/>
  </g>
</svg>
