<svg xmlns="http://www.w3.org/2000/svg" width="1347.447" height="1227.262" viewBox="0 0 1347.447 1227.262">
  <g id="Group_199" data-name="Group 199" transform="translate(72.448 -1359.204)">
    <path id="Path_211" data-name="Path 211" d="M0,0,385.042,1164.618" transform="translate(437.167 1372.737) rotate(3)" fill="none" stroke="#1dff00" stroke-width="2" stroke-dasharray="40"/>
    <path id="Path_210" data-name="Path 210" d="M1399.447-56.732c0-338.02-304.218-580.268-659.139-580.268C340.317-637,53-372.217,53,1.483c0,351.165,309.852,587.779,677.918,587.779C1095.229,589.262,1399.447,322.6,1399.447-56.732ZM1222.925,5.238c0,266.66-146.475,537.076-452.571,537.076-302.34,0-540.832-247.881-540.832-599.047,0-225.347,131.452-533.321,461.961-533.321C1001.334-590.053,1222.925-344.049,1222.925,5.238Z" transform="translate(-124.948 1996.704)" fill="none" stroke="#1dff00" stroke-width="1"/>
  </g>
</svg>
