<svg id="Group_5" data-name="Group 5" xmlns="http://www.w3.org/2000/svg" xmlns:xlink="http://www.w3.org/1999/xlink" width="338.135" height="490.558" viewBox="0 0 338.135 490.558">
  <defs>
    <clipPath id="clip-path">
      <rect id="Rectangle_11" data-name="Rectangle 11" width="338.135" height="490.558" fill="none"/>
    </clipPath>
  </defs>
  <g id="Group_4" data-name="Group 4" clip-path="url(#clip-path)">
    <circle id="Ellipse_3" data-name="Ellipse 3" cx="32.263" cy="32.263" r="32.263" transform="translate(126.813 207.887)" fill="none" stroke="#fff" stroke-miterlimit="10" stroke-width="1"/>
    <path id="Path_19" data-name="Path 19" d="M159.076,168.6a71.3,71.3,0,0,1,29.688,6.43" fill="none" stroke="#fff" stroke-miterlimit="10" stroke-width="1"/>
    <path id="Path_20" data-name="Path 20" d="M125.8,303.509a71.575,71.575,0,0,1,18.86-133.458" fill="none" stroke="#fff" stroke-miterlimit="10" stroke-width="1"/>
    <path id="Path_21" data-name="Path 21" d="M188.764,175.027A71.565,71.565,0,0,1,159.076,311.7q-1.729,0-3.44-.082" fill="none" stroke="#fff" stroke-miterlimit="10" stroke-width="1"/>
    <path id="Path_22" data-name="Path 22" d="M213.714,184.113a78.033,78.033,0,0,1,23.627,56.037q0,1.616-.065,3.215" fill="none" stroke="#fff" stroke-miterlimit="10" stroke-width="1"/>
    <path id="Path_23" data-name="Path 23" d="M70.421,228.327a89.217,89.217,0,0,1,27.508-53.436" fill="none" stroke="#fff" stroke-miterlimit="10" stroke-width="1"/>
    <path id="Path_24" data-name="Path 24" d="M69.646,240.15a90.258,90.258,0,0,1,.775-11.823" fill="none" stroke="#fff" stroke-miterlimit="10" stroke-width="1"/>
    <path id="Path_25" data-name="Path 25" d="M74.818,270.192a88.683,88.683,0,0,1-3.354-12.019" fill="none" stroke="#fff" stroke-miterlimit="10" stroke-width="1"/>
    <path id="Path_26" data-name="Path 26" d="M139.883,327.515a89.591,89.591,0,0,1-60.548-46.838" fill="none" stroke="#fff" stroke-miterlimit="10" stroke-width="1"/>
    <path id="Path_27" data-name="Path 27" d="M239.5,179.58A100.711,100.711,0,0,1,189.014,336.3" fill="none" stroke="#fff" stroke-miterlimit="10" stroke-width="1"/>
    <path id="Path_28" data-name="Path 28" d="M81.39,176.11a100.789,100.789,0,0,1,115.249-29.4" fill="none" stroke="#fff" stroke-miterlimit="10" stroke-width="1"/>
    <path id="Path_29" data-name="Path 29" d="M171.686,356.2a118.023,118.023,0,0,1-12.61.673,116.82,116.82,0,0,1-113.464-144.2" fill="none" stroke="#fff" stroke-miterlimit="10" stroke-width="1"/>
    <path id="Path_30" data-name="Path 30" d="M272.59,267.431a116.955,116.955,0,0,1-60.6,76.783" fill="none" stroke="#fff" stroke-miterlimit="10" stroke-width="1"/>
    <path id="Path_31" data-name="Path 31" d="M187.272,126.859a116.924,116.924,0,0,1,71.6,52.72" fill="none" stroke="#fff" stroke-miterlimit="10" stroke-width="1"/>
    <path id="Path_32" data-name="Path 32" d="M30.859,197.334a135.319,135.319,0,0,1,142.034-91.626" fill="none" stroke="#fff" stroke-miterlimit="10" stroke-width="1"/>
    <path id="Path_33" data-name="Path 33" d="M248.032,341.886a134.621,134.621,0,0,1-88.956,33.4q-5.511,0-10.913-.434" fill="none" stroke="#fff" stroke-miterlimit="10" stroke-width="1"/>
    <path id="Path_34" data-name="Path 34" d="M1.222,224.922a157.91,157.91,0,0,1,37.967-88.571" fill="none" stroke="#fff" stroke-miterlimit="10" stroke-width="1"/>
    <path id="Path_35" data-name="Path 35" d="M87.521,381.7A158.573,158.573,0,0,1,.5,240.15q0-7.705.722-15.228" fill="none" stroke="#fff" stroke-miterlimit="10" stroke-width="1"/>
    <path id="Path_36" data-name="Path 36" d="M205.426,88.455a158.6,158.6,0,0,1-46.35,310.272,160.241,160.241,0,0,1-16.091-.807" fill="none" stroke="#fff" stroke-miterlimit="10" stroke-width="1"/>
    <path id="Path_37" data-name="Path 37" d="M286.319,367.393A179.964,179.964,0,0,1,47.959,381.7" fill="none" stroke="#fff" stroke-miterlimit="10" stroke-width="1"/>
    <path id="Path_38" data-name="Path 38" d="M310.713,143.219a178.926,178.926,0,0,1,24.079,57.954" fill="none" stroke="#fff" stroke-miterlimit="10" stroke-width="1"/>
    <path id="Path_39" data-name="Path 39" d="M5.8,145.831A180.075,180.075,0,0,1,244.85,81.92" fill="none" stroke="#fff" stroke-miterlimit="10" stroke-width="1"/>
    <path id="Path_40" data-name="Path 40" d="M139.883,178.51a64.592,64.592,0,0,1,83.735,61.64q0,2.342-.165,4.643" fill="none" stroke="#fff" stroke-miterlimit="10" stroke-width="1"/>
    <path id="Path_41" data-name="Path 41" d="M98.057,261.234a64.958,64.958,0,0,1-1.7-36.38" fill="none" stroke="#fff" stroke-miterlimit="10" stroke-width="1"/>
    <path id="Path_42" data-name="Path 42" d="M177.857,296.254a59.23,59.23,0,0,1-69.742-26.063" fill="none" stroke="#fff" stroke-miterlimit="10" stroke-width="1"/>
    <path id="Path_43" data-name="Path 43" d="M187.27,188.141a59.33,59.33,0,0,1,12.615,9.194" fill="none" stroke="#fff" stroke-miterlimit="10" stroke-width="1"/>
    <path id="Path_44" data-name="Path 44" d="M112.728,203.4a59.436,59.436,0,0,1,17.486-14.89" fill="none" stroke="#fff" stroke-miterlimit="10" stroke-width="1"/>
    <path id="Path_45" data-name="Path 45" d="M205.426,267.43a53.785,53.785,0,0,1-87.844,6.925" fill="none" stroke="#fff" stroke-miterlimit="10" stroke-width="1"/>
    <path id="Path_46" data-name="Path 46" d="M129.169,203.869a47.025,47.025,0,0,1,76.256,28.33" fill="none" stroke="#fff" stroke-miterlimit="10" stroke-width="1"/>
    <path id="Path_47" data-name="Path 47" d="M119.688,248.253a40.535,40.535,0,0,1,.474-18.246" fill="none" stroke="#fff" stroke-miterlimit="10" stroke-width="1"/>
    <path id="Path_48" data-name="Path 48" d="M159.076,199.945a40.22,40.22,0,0,1,37.562,25.838" fill="none" stroke="#fff" stroke-miterlimit="10" stroke-width="1"/>
    <rect id="Rectangle_10" data-name="Rectangle 10" width="288.71" height="288.71" transform="translate(14.728 91.152)" fill="#1dff00"/>
    <circle id="Ellipse_4" data-name="Ellipse 4" cx="32.263" cy="32.263" r="32.263" transform="translate(126.813 207.887)" fill="none" stroke="#000" stroke-miterlimit="10" stroke-width="1"/>
    <path id="Path_49" data-name="Path 49" d="M159.076,168.6a71.3,71.3,0,0,1,29.688,6.43" fill="none" stroke="#000" stroke-miterlimit="10" stroke-width="1"/>
    <path id="Path_50" data-name="Path 50" d="M125.8,303.509a71.575,71.575,0,0,1,18.86-133.458" fill="none" stroke="#000" stroke-miterlimit="10" stroke-width="1"/>
    <path id="Path_51" data-name="Path 51" d="M188.764,175.027A71.565,71.565,0,0,1,159.076,311.7q-1.729,0-3.44-.082" fill="none" stroke="#000" stroke-miterlimit="10" stroke-width="1"/>
    <path id="Path_52" data-name="Path 52" d="M213.714,184.113a78.033,78.033,0,0,1,23.627,56.037q0,1.616-.065,3.215" fill="none" stroke="#000" stroke-miterlimit="10" stroke-width="1"/>
    <path id="Path_53" data-name="Path 53" d="M70.421,228.327a89.217,89.217,0,0,1,27.508-53.436" fill="none" stroke="#000" stroke-miterlimit="10" stroke-width="1"/>
    <path id="Path_54" data-name="Path 54" d="M69.646,240.15a90.258,90.258,0,0,1,.775-11.823" fill="none" stroke="#000" stroke-miterlimit="10" stroke-width="1"/>
    <path id="Path_55" data-name="Path 55" d="M74.818,270.192a88.683,88.683,0,0,1-3.354-12.019" fill="none" stroke="#000" stroke-miterlimit="10" stroke-width="1"/>
    <path id="Path_56" data-name="Path 56" d="M139.883,327.515a89.591,89.591,0,0,1-60.548-46.838" fill="none" stroke="#000" stroke-miterlimit="10" stroke-width="1"/>
    <path id="Path_57" data-name="Path 57" d="M239.5,179.58A100.711,100.711,0,0,1,189.014,336.3" fill="none" stroke="#000" stroke-miterlimit="10" stroke-width="1"/>
    <path id="Path_58" data-name="Path 58" d="M81.39,176.11a100.789,100.789,0,0,1,115.249-29.4" fill="none" stroke="#000" stroke-miterlimit="10" stroke-width="1"/>
    <path id="Path_59" data-name="Path 59" d="M171.686,356.2a118.023,118.023,0,0,1-12.61.673,116.82,116.82,0,0,1-113.464-144.2" fill="none" stroke="#000" stroke-miterlimit="10" stroke-width="1"/>
    <path id="Path_60" data-name="Path 60" d="M272.59,267.431a116.955,116.955,0,0,1-60.6,76.783" fill="none" stroke="#000" stroke-miterlimit="10" stroke-width="1"/>
    <path id="Path_61" data-name="Path 61" d="M187.272,126.859a116.924,116.924,0,0,1,71.6,52.72" fill="none" stroke="#000" stroke-miterlimit="10" stroke-width="1"/>
    <path id="Path_62" data-name="Path 62" d="M30.859,197.334a135.319,135.319,0,0,1,142.034-91.626" fill="none" stroke="#000" stroke-miterlimit="10" stroke-width="1"/>
    <path id="Path_63" data-name="Path 63" d="M248.032,341.886a134.621,134.621,0,0,1-88.956,33.4q-5.511,0-10.913-.434" fill="none" stroke="#000" stroke-miterlimit="10" stroke-width="1"/>
    <path id="Path_64" data-name="Path 64" d="M1.222,224.922a157.91,157.91,0,0,1,37.967-88.571" fill="none" stroke="#000" stroke-miterlimit="10" stroke-width="1"/>
    <path id="Path_65" data-name="Path 65" d="M87.521,381.7A158.573,158.573,0,0,1,.5,240.15q0-7.705.722-15.228" fill="none" stroke="#000" stroke-miterlimit="10" stroke-width="1"/>
    <path id="Path_66" data-name="Path 66" d="M213.715,91.238a158.6,158.6,0,0,1-54.638,307.488,160.511,160.511,0,0,1-16.091-.806" fill="none" stroke="#000" stroke-miterlimit="10" stroke-width="1"/>
    <path id="Path_67" data-name="Path 67" d="M286.319,367.393A179.964,179.964,0,0,1,47.959,381.7" fill="none" stroke="#000" stroke-miterlimit="10" stroke-width="1"/>
    <path id="Path_68" data-name="Path 68" d="M310.713,143.219a178.926,178.926,0,0,1,24.079,57.954" fill="none" stroke="#000" stroke-miterlimit="10" stroke-width="1"/>
    <path id="Path_69" data-name="Path 69" d="M5.8,145.831A180.075,180.075,0,0,1,244.85,81.92" fill="none" stroke="#000" stroke-miterlimit="10" stroke-width="1"/>
    <path id="Path_70" data-name="Path 70" d="M139.883,178.51a64.592,64.592,0,0,1,83.735,61.64q0,2.342-.165,4.643" fill="none" stroke="#000" stroke-miterlimit="10" stroke-width="1"/>
    <path id="Path_71" data-name="Path 71" d="M98.057,261.234a64.958,64.958,0,0,1-1.7-36.38" fill="none" stroke="#000" stroke-miterlimit="10" stroke-width="1"/>
    <path id="Path_72" data-name="Path 72" d="M177.857,296.254a59.23,59.23,0,0,1-69.742-26.063" fill="none" stroke="#000" stroke-miterlimit="10" stroke-width="1"/>
    <path id="Path_73" data-name="Path 73" d="M187.27,188.141a59.33,59.33,0,0,1,12.615,9.194" fill="none" stroke="#000" stroke-miterlimit="10" stroke-width="1"/>
    <path id="Path_74" data-name="Path 74" d="M112.728,203.4a59.436,59.436,0,0,1,17.486-14.89" fill="none" stroke="#000" stroke-miterlimit="10" stroke-width="1"/>
    <path id="Path_75" data-name="Path 75" d="M205.426,267.43a53.785,53.785,0,0,1-87.844,6.925" fill="none" stroke="#000" stroke-miterlimit="10" stroke-width="1"/>
    <path id="Path_76" data-name="Path 76" d="M129.169,203.869a47.025,47.025,0,0,1,76.256,28.33" fill="none" stroke="#000" stroke-miterlimit="10" stroke-width="1"/>
    <path id="Path_77" data-name="Path 77" d="M119.688,248.253a40.535,40.535,0,0,1,.474-18.246" fill="none" stroke="#000" stroke-miterlimit="10" stroke-width="1"/>
    <path id="Path_78" data-name="Path 78" d="M159.076,199.945a40.22,40.22,0,0,1,37.562,25.838" fill="none" stroke="#000" stroke-miterlimit="10" stroke-width="1"/>
    <text id="B" transform="translate(87.523 352.226)" fill="#fff" font-size="426.943" font-family="EBGaramond-Regular, EB Garamond"><tspan x="0" y="0">B</tspan></text>
  </g>
</svg>
